<?xml version="1.0" encoding="utf-8"?>
<!-- Generator: Adobe Illustrator 24.1.0, SVG Export Plug-In . SVG Version: 6.00 Build 0)  -->
<svg version="1.1" id="Capa_1" xmlns="http://www.w3.org/2000/svg" xmlns:xlink="http://www.w3.org/1999/xlink" x="0px" y="0px"
	 viewBox="0 0 20.7 20.9" style="enable-background:new 0 0 20.7 20.9;" xml:space="preserve">
<style type="text/css">
	.st0{fill:#FFFFFF;}
</style>
<circle cx="10.4" cy="10.6" r="10.3"/>
<path class="st0" d="M10.4,5.2C9.4,4.4,8.1,4.3,6.9,4.4c-1.4,0.2-2.8,0.6-3.7,1C3,5.5,2.9,5.6,2.9,5.8V16c0,0.3,0.2,0.5,0.5,0.5
	c0.1,0,0.1,0,0.2,0c0.8-0.4,2.1-0.8,3.4-0.9c1.3-0.1,2.4,0.1,3,0.8c0.2,0.2,0.5,0.2,0.6,0.1c0,0,0.1,0,0.1-0.1
	c0.6-0.7,1.7-0.9,3-0.8c1.3,0.1,2.6,0.6,3.4,0.9c0.3,0.1,0.5,0,0.6-0.2c0-0.1,0-0.1,0-0.2V5.9c0-0.2-0.1-0.4-0.3-0.5
	c-0.9-0.4-2.3-0.9-3.7-1C12.6,4.3,11.2,4.3,10.4,5.2z"/>
</svg>
