<?xml version="1.0" encoding="utf-8"?>
<!-- Generator: Adobe Illustrator 24.1.0, SVG Export Plug-In . SVG Version: 6.00 Build 0)  -->
<svg version="1.1" id="Capa_1" xmlns="http://www.w3.org/2000/svg" xmlns:xlink="http://www.w3.org/1999/xlink" x="0px" y="0px"
	 viewBox="0 0 16 16" style="enable-background:new 0 0 16 16;" xml:space="preserve">
<style type="text/css">
	.st0{fill:#0066CC;}
</style>
<path class="st0" d="M16,2c0-1.1-0.9-2-2-2H2C0.9,0,0,0.9,0,2v8c0,1.1,0.9,2,2,2h9.6c0.3,0,0.5,0.1,0.7,0.3l2.9,2.9
	c0.2,0.2,0.5,0.2,0.7,0C16,15.1,16,15,16,14.8V2z M7.2,4.8C7.3,4.9,7.4,5,7.4,5.2c0.4,0.9,0.4,2.4-0.9,3.7C6.3,9,6,9,5.9,8.9
	c-0.2-0.2-0.2-0.4,0-0.6l0,0c0.4-0.4,0.7-0.8,0.8-1.2c-0.3,0.1-0.6,0.2-1,0.2C4.8,7.3,4,6.6,4,5.7S4.8,4,5.7,4C6,4,6.3,4.1,6.5,4.2
	l0,0c0.2,0,0.3,0.2,0.5,0.3C7.1,4.6,7.1,4.7,7.2,4.8z M11,7.1c-0.3,0.2-0.6,0.3-0.9,0.3c-1,0-1.7-0.7-1.7-1.7S9.1,4,10.1,4
	c0.3,0,0.5,0.1,0.8,0.2l0,0c0.2,0.1,0.3,0.2,0.5,0.3c0.1,0.1,0.2,0.2,0.2,0.3c0.1,0.1,0.2,0.3,0.2,0.4c0.4,0.9,0.4,2.4-0.9,3.7
	c-0.2,0.2-0.4,0.2-0.6,0c-0.2-0.2-0.2-0.4,0-0.6l0,0C10.6,7.9,10.9,7.5,11,7.1L11,7.1z"/>
</svg>
